<svg xmlns="http://www.w3.org/2000/svg" xmlns:xlink="http://www.w3.org/1999/xlink" width="68" height="64" viewBox="0 0 68 64"><defs><filter id="a" x="2" y="14" width="50" height="50" filterUnits="userSpaceOnUse"><feOffset dy="-5" input="SourceAlpha"/><feGaussianBlur stdDeviation="3" result="b"/><feFlood flood-opacity="0.09"/><feComposite operator="in" in2="b"/><feComposite in="SourceGraphic"/></filter><filter id="c" x="0" y="0" width="68" height="63" filterUnits="userSpaceOnUse"><feOffset dy="5" input="SourceAlpha"/><feGaussianBlur stdDeviation="5" result="d"/><feFlood flood-opacity="0.059"/><feComposite operator="in" in2="d"/><feComposite in="SourceGraphic"/></filter></defs><g transform="translate(-236 -43)"><g transform="translate(237 53)"><rect width="11" height="26" rx="1" transform="translate(11 7)" fill="#f2994a"/><g transform="matrix(1, 0, 0, 1, -1, -10)" filter="url(#a)"><circle cx="16" cy="16" r="16" transform="translate(11 28)" fill="#5653fd"/></g><g transform="matrix(1, 0, 0, 1, -1, -10)" filter="url(#c)"><path d="M15.534,6.021a4,4,0,0,1,6.933,0L34.548,27a4,4,0,0,1-3.466,6H6.919a4,4,0,0,1-3.466-6Z" transform="translate(15 10)" fill="#b4b2ff"/></g></g></g></svg>