<svg xmlns="http://www.w3.org/2000/svg" xmlns:xlink="http://www.w3.org/1999/xlink" width="960.1" height="1188.096" viewBox="0 0 960.1 1188.096"><defs><linearGradient id="a" x1="0.695" y1="0.357" x2="0.322" y2="0.631" gradientUnits="objectBoundingBox"><stop offset="0" stop-color="#fff"/><stop offset="1" stop-color="#fff" stop-opacity="0"/></linearGradient><linearGradient id="b" x1="0.248" y1="-0.125" x2="0.628" y2="0.817" xlink:href="#a"/><linearGradient id="c" x1="0.593" y1="0.34" x2="0.422" y2="0.635" xlink:href="#a"/><linearGradient id="e" x1="0.612" y1="0.323" x2="0.406" y2="0.649" xlink:href="#a"/><linearGradient id="g" x1="0.733" y1="0.265" x2="0.121" y2="0.882" xlink:href="#a"/></defs><g transform="translate(-0.9 -0.1)"><path d="M.127,0,875.7,505.383l-.127,682.331L0,682.331Z" transform="translate(83.391 0.1)" opacity="0.1" fill="url(#a)"/><path d="M0,0,874.427,504.746v92.547L0,92.547Z" transform="translate(83.518 0.1)" opacity="0.2" fill="url(#b)"/><path d="M0,0,226.34,130.61v62.759L0,62.759Z" transform="translate(0.9 309.186)" fill="#f2994a"/><path d="M0,0,226.34,130.61v62.759L0,62.759Z" transform="translate(624.927 659.135)" fill="#f2c94c"/><path d="M0,0,441.733,254.983v189.55L0,189.55Z" transform="translate(476.495 743.662)" opacity="0.15" fill="url(#c)"/><path d="M0,0,441.733,254.983v189.55L0,189.55Z" transform="translate(519.268 722.276)" opacity="0.07" fill="url(#c)"/><path d="M0,0,66.578,38.445V101.2L0,62.759Z" transform="translate(509.211 801.075)" fill="#fff" opacity="0.15"/><path d="M0,0,66.578,38.445V101.2L0,62.759Z" transform="translate(591.192 850.595)" fill="#fff" opacity="0.15"/><path d="M0,0,66.578,38.445V101.2L0,62.632Z" transform="translate(673.174 897.059)" fill="#fff" opacity="0.15"/><path d="M0,0,66.578,38.445V101.2L0,62.759Z" transform="translate(755.156 946.579)" fill="#fff" opacity="0.15"/><path d="M0,0,502.328,289.991v21.386L0,21.514Z" transform="translate(142.585 256.611)" fill="#fff" opacity="0.15"/><path d="M0,0,433.458,250.145v21.386L0,21.386Z" transform="translate(142.585 299.765)" fill="#fff" opacity="0.15"/><path d="M0,0,368.79,212.846v21.386L0,21.386Z" transform="translate(142.585 342.411)" fill="#fff" opacity="0.15"/><path d="M0,0,367.771,212.21V401.76L0,189.55Z" transform="translate(21.65 461.182)" opacity="0.15" fill="url(#e)"/><path d="M0,0,367.771,212.21V401.76L0,189.55Z" transform="translate(64.423 439.796)" opacity="0.07" fill="url(#e)"/><path d="M0,0,292.155,168.673V190.06L0,21.514Z" transform="translate(46.728 521.268)" fill="#fff" opacity="0.15"/><path d="M0,0,233.978,135.066v21.386L0,21.386Z" transform="translate(46.728 564.423)" fill="#fff" opacity="0.15"/><path d="M36.153,37.453c0,13.876-8.147,20.368-18.077,14.64S0,30.452,0,16.7,8.147-3.665,18.077,2.064,36.153,23.7,36.153,37.453Z" transform="translate(142.585 63.851)" fill="#fff" opacity="0.2"/><path d="M234.361,401.806Q206.1,385.574,189.3,355.595c-11.2-19.858-16.8-42.518-16.8-67.724s5.6-41.373,16.8-48.374,26.224-5.093,45.065,5.856q28.26,16.23,45.064,46.21c11.2,19.86,16.8,42.518,16.8,67.724s-5.6,41.374-16.8,48.375a27.58,27.58,0,0,1-14.924,4.118Q251.549,411.78,234.361,401.806ZM55.248,291.945l136.593-200.5,48.5,28.006L103.75,319.951Zm6.62-125.519Q33.608,150.2,16.8,120.217C5.6,100.357,0,77.7,0,52.493S5.6,11.121,16.8,4.118,43.028-.974,61.868,9.975,95.73,36.2,106.932,56.184q16.8,29.788,16.8,67.724c0,25.205-5.6,41.373-16.8,48.374A27.581,27.581,0,0,1,92.007,176.4Q79.056,176.4,61.868,166.426Z" transform="translate(31.198 706.191)" opacity="0.3" fill="url(#g)"/></g></svg>