<svg xmlns="http://www.w3.org/2000/svg" xmlns:xlink="http://www.w3.org/1999/xlink" width="1071.6" height="1321.126" viewBox="0 0 1071.6 1321.126"><defs><linearGradient id="a" x1="1.453" y1="0.034" x2="-0.327" y2="0.753" gradientUnits="objectBoundingBox"><stop offset="0" stop-color="#fff"/><stop offset="1" stop-color="#fff" stop-opacity="0"/></linearGradient><linearGradient id="b" x1="1.926" y1="0.005" x2="0.146" y2="0.724" xlink:href="#a"/><linearGradient id="e" x1="1.018" y1="0.198" x2="0.064" y2="0.755" xlink:href="#a"/><linearGradient id="f" x1="0.343" y1="0.005" x2="0.648" y2="0.966" xlink:href="#a"/><linearGradient id="h" x1="0.343" y1="0.006" x2="0.648" y2="0.966" xlink:href="#a"/><linearGradient id="i" x1="0.782" y1="0.313" x2="0.265" y2="0.656" xlink:href="#a"/><linearGradient id="j" x1="0.75" y1="0.355" x2="0.124" y2="0.717" xlink:href="#a"/></defs><g transform="translate(-0.8 -0.963)"><path d="M203.366,586.752q-27.972-16.3-40.526-.881c-8.37,10.132-12.481,27.311-12.481,51.539V767.946c0,24.815-2.349,45.372-6.9,61.671-4.552,16.886-12.334,28.926-23.053,35.974-10.425,7.195-24.521,9.1-42.435,5.727q-26.21-4.846-65.488-27.458L0,836.664V733.88l15.564,8.957C34.212,753.7,46.693,755.024,53.007,747.1c6.608-7.635,9.985-23.64,9.985-47.868V584.255c0-29.954,2.937-53.595,8.81-71.068s17.473-28.486,34.947-33.478Q80.539,442.046,71.8,406c-5.873-24.081-8.663-51.1-8.663-81.053V209.974c0-24.228-3.377-43.9-9.985-59.321-6.167-15.124-18.648-28.045-37.443-38.911L.147,102.784V0L12.628,7.195q39.2,22.686,65.488,48.162c17.914,17.18,32.01,35.534,42.435,54.769A217.909,217.909,0,0,1,143.6,172.678a337.963,337.963,0,0,1,6.9,69.6V372.813c0,24.228,4.111,46.253,12.481,65.929a93.4,93.4,0,0,0,40.526,45.812Z" transform="translate(868.887 78.693)" opacity="0.07" fill="url(#a)"/><path d="M.147,286.382q27.972,16.3,40.526.881c8.37-10.132,12.481-27.311,12.481-51.539V105.188c0-24.815,2.349-45.372,6.9-61.671C64.607,26.632,72.1,14.444,82.521,7.249,93.387.2,107.483-1.707,124.956,1.523q26.871,5.066,66.076,27.752l12.481,7.195V139.254L187.948,130.3c-18.648-10.866-31.423-12.334-38.03-4.7-6.167,7.929-9.4,23.934-9.4,48.162V288.732c0,29.954-2.937,53.595-8.81,71.068-5.873,17.327-17.473,28.486-34.947,33.478q26.21,37.663,34.947,73.711c5.873,24.081,8.663,51.1,8.663,81.053V663.013c0,24.228,3.084,43.9,9.4,59.028,6.608,15.418,19.382,28.486,38.03,39.2l15.564,8.957V872.987l-12.481-7.195q-39.2-22.686-66.076-48.456a238.133,238.133,0,0,1-42.435-54.769,223.426,223.426,0,0,1-22.466-62.258,337.962,337.962,0,0,1-6.9-69.6V500.174c0-24.228-4.111-46.253-12.481-65.929A93.4,93.4,0,0,0,0,388.432Z" transform="translate(598.564 0.963)" opacity="0.07" fill="url(#b)"/><path d="M203.366,586.752q-27.972-16.3-40.526-.881c-8.37,10.132-12.481,27.311-12.481,51.539V767.946c0,24.815-2.349,45.372-6.9,61.671-4.552,16.886-12.334,28.926-23.053,35.974-10.425,7.195-24.521,9.1-42.435,5.727q-26.21-4.846-65.488-27.458L0,836.664V733.88l15.564,8.957C34.212,753.7,46.693,755.024,53.007,747.1c6.608-7.635,9.985-23.64,9.985-47.868V584.255c0-29.954,2.937-53.595,8.81-71.068s17.473-28.486,34.947-33.478Q80.539,442.046,71.8,406c-5.873-24.081-8.663-51.1-8.663-81.053V209.974c0-24.228-3.377-43.9-9.985-59.321-6.167-15.124-18.648-28.045-37.443-38.911L.147,102.784V0L12.628,7.195q39.2,22.686,65.488,48.162c17.914,17.18,32.01,35.534,42.435,54.769A217.909,217.909,0,0,1,143.6,172.678a337.963,337.963,0,0,1,6.9,69.6V372.813c0,24.228,4.111,46.253,12.481,65.929a93.4,93.4,0,0,0,40.526,45.812Z" transform="translate(810.153 122.743)" opacity="0.4" fill="url(#a)"/><path d="M.147,286.382q27.972,16.3,40.526.881c8.37-10.132,12.481-27.311,12.481-51.539V105.188c0-24.815,2.349-45.372,6.9-61.671C64.607,26.632,72.1,14.444,82.521,7.249,93.387.2,107.483-1.707,124.956,1.523q26.871,5.066,66.076,27.752l12.481,7.195V139.254L187.948,130.3c-18.648-10.866-31.423-12.334-38.03-4.7-6.167,7.929-9.4,23.934-9.4,48.162V288.732c0,29.954-2.937,53.595-8.81,71.068-5.873,17.327-17.473,28.486-34.947,33.478q26.21,37.663,34.947,73.711c5.873,24.081,8.663,51.1,8.663,81.053V663.013c0,24.228,3.084,43.9,9.4,59.028,6.608,15.418,19.382,28.486,38.03,39.2l15.564,8.957V872.987l-12.481-7.195q-39.2-22.686-66.076-48.456a238.133,238.133,0,0,1-42.435-54.769,223.426,223.426,0,0,1-22.466-62.258,337.962,337.962,0,0,1-6.9-69.6V500.174c0-24.228-4.111-46.253-12.481-65.929A93.4,93.4,0,0,0,0,388.432Z" transform="translate(539.83 45.013)" opacity="0.4" fill="url(#b)"/><path d="M.147,0,251.087,144.926l-.147,600.995L0,600.995Z" transform="translate(213.857 18.931)" opacity="0.15" fill="url(#e)"/><path d="M0,0,199.548,115.265v55.357L0,55.357Z" transform="translate(166.87 111.29)" fill="#f2c94c"/><path d="M0,0,191.766,110.713v86.045L0,86.045Z" transform="translate(244.986 351.512)" fill="#fff" opacity="0.15"/><path d="M0,0,192.06,110.86v19.97L0,20.116Z" transform="translate(244.839 247.406)" fill="#fff" opacity="0.15"/><path d="M0,0,166.07,95.883v19.97L0,19.97Z" transform="translate(244.839 286.464)" fill="#fff" opacity="0.15"/><path d="M0,0,250.941,144.926v80.612L0,80.612Z" transform="translate(214.004 18.931)" opacity="0.2" fill="url(#f)"/><path d="M31.863,33.078c0,12.187-7.195,17.914-16,12.921C7.048,40.86,0,26.911,0,14.723S7.195-3.191,16,1.8C24.668,6.941,31.863,20.89,31.863,33.078Z" transform="translate(244.839 62.795)" fill="#fff" opacity="0.2"/><path d="M.147,0,251.087,144.926l-.147,600.995L0,600.995Z" transform="translate(522.21 576.169)" opacity="0.15" fill="url(#e)"/><path d="M.147,0,199.7,115.118v55.21L0,55.21Z" transform="translate(617.799 751.049)" fill="#f2994a"/><path d="M0,0,191.913,110.86v85.9L0,85.9Z" transform="translate(553.339 808.168)" fill="#fff" opacity="0.15"/><path d="M0,0,192.06,110.86v19.97L0,20.116Z" transform="translate(553.045 930.922)" fill="#fff" opacity="0.15"/><path d="M0,0,166.07,95.883v19.97L0,19.97Z" transform="translate(553.045 967.043)" fill="#fff" opacity="0.15"/><path d="M0,0,250.941,144.926v80.612L0,80.612Z" transform="translate(522.357 576.169)" opacity="0.2" fill="url(#h)"/><path d="M31.863,33.078c0,12.187-7.195,17.914-16,12.921C7.048,40.86,0,26.911,0,14.723S7.195-3.191,16,1.8C24.668,6.794,31.863,20.89,31.863,33.078Z" transform="translate(553.192 620.18)" fill="#fff" opacity="0.2"/><path d="M436.833,252.115,0,0,.147,227.741,398.509,457.684,437.127,514.8Z" transform="translate(42.061 407.309)" opacity="0.3" fill="url(#i)"/><path d="M95.736,55.21,0,0V19.97l95.736,55.21V55.21Z" transform="translate(270.829 594.817)" fill="#fff" opacity="0.15"/><path d="M236.991,136.85,0,0V19.97l237.138,136.85Z" transform="translate(129.574 553.263)" fill="#fff" opacity="0.15"/><path d="M286.181,165.189,0,0V19.97L286.181,185.159Z" transform="translate(80.531 565.01)" fill="#fff" opacity="0.15"/><path d="M0,22.59C0,41.384,11.159,62.969,24.815,70.9S49.63,70.017,49.63,51.222,38.471,10.843,24.815,2.914C11.013-5.015,0,3.795,0,22.59Z" transform="translate(390.206 661.943)" fill="#f2994a"/><path d="M57.853,53.007,0,19.529V0L57.853,33.478A58.086,58.086,0,0,1,75.326,50.217c6.314,9.1,10.866,20.557,10.866,33.038,0,13.8-3.524,21.585-10.132,23.934-6.314,2.056-13.656-1.468-18.208-4.111l-23.787-13.8-.147-.147c-2.056-1.175-5.286-2.349-7.782-1.615-2.056.587-4.552,2.79-4.552,10.425s2.349,12.334,4.405,15.124a23.459,23.459,0,0,0,7.782,7.048l.294.147,72.83,41.995v19.529l-72.39-41.848a55.725,55.725,0,0,1-18.354-16.739A60.739,60.739,0,0,1,4.7,88.1C4.7,74.739,9.4,67.838,16,65.929c6.167-1.762,13.362.881,18.354,3.818L58,83.4c3.377,1.909,6.02,2.79,7.635,2.2,1.322-.44,3.671-2.349,3.671-12.187a22.312,22.312,0,0,0-4.111-13.509A25.743,25.743,0,0,0,57.853,53.007Z" transform="translate(27.377 194.399)" fill="#fff" opacity="0.15"/><path d="M43.757,45.388c0,16.739-9.838,24.521-21.878,17.62S0,36.872,0,20.133,9.838-4.389,21.878,2.513C33.919,9.561,43.757,28.8,43.757,45.388Z" transform="translate(0.8 170.595)" fill="#f2c94c"/><path d="M43.757,45.388c0,16.739-9.838,24.521-21.878,17.62S0,36.872,0,20.133,9.838-4.389,21.878,2.513C33.919,9.561,43.757,28.8,43.757,45.388Z" transform="translate(116.799 332.113)" fill="#f2c94c"/><path d="M61.377,2.212c8.81,5.139,15.858,17.326,15.858,27.6V74.6L106.9,91.635c8.81,5.139,15.858,17.326,15.858,27.6,0,10.132-7.195,14.243-15.858,9.251L77.235,111.458v44.785c0,10.132-7.195,14.243-15.858,9.251-8.81-5.139-15.858-17.327-15.858-27.6V93.1L15.858,76.07C7.048,70.931,0,58.744,0,48.465c0-10.132,7.195-14.243,15.858-9.251L45.519,56.248V11.463C45.519,1.185,52.567-2.927,61.377,2.212Z" transform="translate(255.265 885.833)" opacity="0.2" fill="url(#j)"/></g></svg>