<svg xmlns="http://www.w3.org/2000/svg" xmlns:xlink="http://www.w3.org/1999/xlink" width="1044.38" height="1041.865" viewBox="0 0 1044.38 1041.865"><defs><linearGradient id="a" x1="0.964" y1="0.136" x2="0.335" y2="0.7" gradientUnits="objectBoundingBox"><stop offset="0" stop-color="#fff"/><stop offset="1" stop-color="#fff" stop-opacity="0"/></linearGradient><linearGradient id="c" x1="0.48" y1="0.038" x2="0.517" y2="0.884" xlink:href="#a"/><linearGradient id="e" x1="0.48" y1="0.038" x2="0.517" y2="0.884" xlink:href="#a"/><linearGradient id="g" x1="1.107" y1="0.067" x2="0.22" y2="0.7" xlink:href="#a"/><linearGradient id="h" x1="0.826" y1="0.428" x2="-0.014" y2="0.648" xlink:href="#a"/><linearGradient id="i" x1="0.173" y1="0.572" x2="1.013" y2="0.352" xlink:href="#a"/></defs><g transform="translate(-0.2 -0.7)"><path d="M523.258,329.354c0,5.658-.126,11.315-.5,16.6,54.061,41.111,95.675,129.243,95.675,206.814,0,84.486-49.409,124.34-110.385,89.138-.126-.126-.251-.126-.377-.251l-383.077-220.9c-.126-.126-.251-.126-.5-.251C55.569,380.9,0,271.9,0,176.978,0,88.092,48.78,42.958,111.265,70.24c7.669-60.976,48.529-87.252,97.812-58.713,23.636,13.7,45.386,37.717,62.359,66.633,24.642-36.585,66.633-45.889,114.156-18.481C461.654,103.43,523.258,224.25,523.258,329.354Z" transform="translate(426.149 110.496)" opacity="0.07" fill="url(#a)"/><path d="M523.258,329.354c0,5.658-.126,11.315-.5,16.6,54.061,41.111,95.675,129.243,95.675,206.814,0,84.486-49.409,124.34-110.385,89.138-.126-.126-.251-.126-.377-.251l-383.077-220.9c-.126-.126-.251-.126-.5-.251C55.569,380.9,0,271.9,0,176.978,0,88.092,48.78,42.958,111.265,70.24c7.669-60.976,48.529-87.252,97.812-58.713,23.636,13.7,45.386,37.717,62.359,66.633,24.642-36.585,66.633-45.889,114.156-18.481C461.654,103.43,523.258,224.25,523.258,329.354Z" transform="translate(363.288 170.843)" opacity="0.4" fill="url(#a)"/><path d="M58.335,53.432,0,19.738V0L58.335,33.694a57.658,57.658,0,0,1,17.6,16.847A58.622,58.622,0,0,1,86.874,83.857c0,13.829-3.52,21.75-10.309,24.013-6.286,2.137-13.7-1.509-18.356-4.149L34.2,89.892l-.126-.126c-2.012-1.257-5.28-2.389-7.921-1.634-2.137.629-4.526,2.766-4.526,10.435s2.389,12.447,4.4,15.212a23.833,23.833,0,0,0,7.795,7.04l.251.126,73.3,42.369v19.739L34.448,140.935c-5.029-2.64-12.2-8.172-18.481-16.973A60.2,60.2,0,0,1,4.526,88.635c0-13.452,4.652-20.367,11.441-22.253,6.286-1.76,13.452.754,18.481,3.9l23.762,13.7c3.395,2.012,6.035,2.892,7.669,2.263,1.257-.377,3.772-2.263,3.772-12.321a23.817,23.817,0,0,0-4.023-13.578A25.876,25.876,0,0,0,58.335,53.432Z" transform="translate(221.724 554.383)" fill="#fff" opacity="0.2"/><path d="M42.494,44.142c0,16.218-9.555,23.887-21.247,17.224C9.555,54.577,0,35.97,0,19.626,0,3.407,9.555-4.262,21.247,2.4,32.939,9.191,42.494,27.923,42.494,44.142Z" transform="translate(191.802 525.077)" fill="#f2994a"/><path d="M42.494,44.142c0,16.218-9.555,23.887-21.247,17.224C9.555,54.577,0,35.97,0,19.626,0,3.407,9.555-4.262,21.247,2.4,32.939,9.191,42.494,27.923,42.494,44.142Z" transform="translate(316.267 699.832)" fill="#f2994a"/><path d="M.126,0,377.169,217.626V417.148L0,199.522Z" transform="translate(459.088 326.322)" opacity="0.07" fill="url(#c)"/><path d="M0,0,377.043,217.626V417.148L0,199.522Z" transform="translate(408.799 351.467)" opacity="0.3" fill="url(#c)"/><path d="M0,19.342C0,35.434,9.555,53.915,21.247,60.7s21.247-.754,21.247-16.847S32.939,9.284,21.247,2.495,0,3.249,0,19.342Z" transform="translate(442.619 450.933)" fill="#f2994a"/><path d="M0,8.946c0,7.418,4.4,16.093,9.932,19.236,5.406,3.143,9.806-.377,9.806-7.795S15.338,4.294,9.806,1.151C4.4-1.992,0,1.528,0,8.946Z" transform="translate(495.799 492.382)" fill="#fff" opacity="0.15"/><path d="M0,8.946c0,7.418,4.4,16.093,9.932,19.236,5.406,3.143,9.806-.377,9.806-7.795S15.338,4.294,9.806,1.151C4.4-1.992,0,1.528,0,8.946Z" transform="translate(526.099 509.858)" fill="#fff" opacity="0.15"/><path d="M14.835,8.549V122.077L0,113.528V0Z" transform="translate(675.834 544.2)" fill="#fff" opacity="0.15"/><path d="M14.835,8.549V122.077L0,113.528V0Z" transform="translate(708.271 563.058)" fill="#fff" opacity="0.15"/><path d="M14.835,8.549V122.077L0,113.528V0Z" transform="translate(740.833 581.917)" fill="#fff" opacity="0.15"/><path d="M0,0,377.043,217.626V417.148L0,199.522Z" transform="translate(459.088 599.015)" opacity="0.07" fill="url(#e)"/><path d="M0,0,377.043,217.626V417.148L0,199.522Z" transform="translate(408.799 625.417)" opacity="0.3" fill="url(#e)"/><path d="M0,19.342C0,35.434,9.555,53.915,21.247,60.7s21.247-.754,21.247-16.847S32.939,9.284,21.247,2.495,0,3.249,0,19.342Z" transform="translate(442.619 724.883)" fill="#f2994a"/><path d="M0,8.964C0,16.381,4.4,25.056,9.932,28.2c5.406,3.143,9.806-.377,9.806-7.795S15.338,4.312,9.806,1.169C4.4-1.974,0,1.42,0,8.964Z" transform="translate(495.799 766.44)" fill="#fff" opacity="0.15"/><path d="M0,9.017c0,7.418,4.4,16.093,9.932,19.236,5.406,3.143,9.806-.377,9.806-7.795S15.338,4.365,9.806,1.222C4.4-2.047,0,1.474,0,9.017Z" transform="translate(525.973 783.863)" fill="#fff" opacity="0.15"/><path d="M14.835,8.549V122.077L0,113.528V0Z" transform="translate(675.834 822.047)" fill="#fff" opacity="0.15"/><path d="M14.835,8.549V122.077L0,113.528V0Z" transform="translate(708.271 840.906)" fill="#fff" opacity="0.15"/><path d="M14.835,8.549V122.077L0,113.528V0Z" transform="translate(740.833 859.764)" fill="#fff" opacity="0.15"/><path d="M0,0,234.976,135.655V571.033L0,435.253Z" transform="translate(73.999 55.892)" opacity="0.3" fill="url(#g)"/><path d="M56.072,58.979c0,21.75-12.572,32.059-28.036,23.007S0,48.041,0,26.291,12.572-5.769,28.036,3.283,56.072,37.228,56.072,58.979Z" transform="translate(163.011 154.57)" fill="#f2c94c"/><path d="M49.347,5.834C24.328-8.749,3.709,4.954.063,36.385c-.629,5.406,3.52,12.7,8.549,15.59L90.206,99.624c5.029,2.892,9.178.629,8.549-5.658C94.984,58.135,74.24,20.418,49.347,5.834Z" transform="translate(141.701 248.197)" fill="#f2c94c"/><path d="M0,0,140.055,80.84v17.1L0,17.1Z" transform="translate(121.145 338.266)" fill="#fff" opacity="0.15"/><path d="M0,0,111.013,63.993v17.1L0,17.1Z" transform="translate(135.352 380.383)" fill="#fff" opacity="0.15"/><path d="M163.44,94.418,0,0V48.655l163.44,94.418Z" transform="translate(0.2 357.879)" fill="#f2c94c"/><path d="M37.836,0,72.787,68.645c4.777,9.429,4.023,18.858-1.76,21.121S56.694,86.12,51.917,76.691l-.377-.88V152c0,8.675-6.035,12.2-13.578,7.921-7.543-4.4-13.578-14.835-13.578-23.51V60.221l-.377.377c-4.777,3.9-13.452-.126-19.11-9.052C-.887,42.62-1.641,32.311,3.136,28.413Z" transform="translate(321.806 0.7)" opacity="0.2" fill="url(#h)"/><path d="M38.087,161.736,3.136,93.091C-1.641,83.662-.887,74.233,4.9,71.97s14.332,3.646,19.11,13.075l.377.88V9.737c0-8.675,6.035-12.2,13.578-7.921C45.5,6.217,51.54,16.652,51.54,25.327v76.188l.377-.377c4.777-3.9,13.452.126,19.11,9.052,5.783,8.926,6.538,19.236,1.76,23.133Z" transform="translate(321.554 852.541)" opacity="0.2" fill="url(#i)"/></g></svg>