<svg xmlns="http://www.w3.org/2000/svg" xmlns:xlink="http://www.w3.org/1999/xlink" width="527.553" height="609.712" viewBox="0 0 527.553 609.712"><defs><linearGradient id="a" x1="0.5" y1="0.129" x2="0.5" y2="1.085" gradientUnits="objectBoundingBox"><stop offset="0" stop-color="#fff" stop-opacity="0"/><stop offset="1" stop-color="#fff"/></linearGradient><linearGradient id="b" y1="0.124" y2="1.106" xlink:href="#a"/></defs><g transform="translate(-411.432 -0.3)"><path d="M22.074,22.928c0-8.49-4.988-18.148-11.037-21.65C4.882-2.224,0,1.7,0,10.193s4.988,18.148,11.037,21.65C17.086,35.451,22.074,31.418,22.074,22.928Z" transform="translate(791.681 520.419)" fill="#f2994a"/><path d="M22.923,22.729c0-8.172-5.094-17.723-11.462-21.331S0,1.4,0,9.569,5.094,27.292,11.462,30.9C17.723,34.509,22.923,30.9,22.923,22.729Z" transform="translate(498.031 577.714)" fill="#f2c94c"/><path d="M0,0,195.909,113.024V498.05L0,385.025Z" transform="translate(743.076 0.3)" fill="#fff" opacity="0.07"/><path d="M196.015,113.024.106,0,0,385.025l84.689,48.818L98.06,460.163l13.266-10.825,84.689,48.712Z" transform="translate(704.764 33.411)" opacity="0.3" fill="url(#a)"/><path d="M67.708,39.161c0,12.311-1.8,23.56-5.2,33.005S54.124,89.04,47.863,94.134a34.175,34.175,0,0,1-21.968,7.641c-8.172,0-17.086-2.653-25.895-7.853V0Z" transform="translate(807.388 227.304)" fill="#fff" opacity="0.1"/><path d="M67.815,174.79c-11.886-6.9-23.56-17.935-33.854-32.156A183.255,183.255,0,0,1,9.127,93.922C3.184,76.2,0,58.157,0,41.708S3.184,10.825,9.127,0L67.815,80.868Z" transform="translate(739.573 146.542)" fill="#fff" opacity="0.3"/><path d="M126.5,140.829c0-20.695-4.882-43.618-14.009-65.268S90.632,34.809,76.3,21.119C61.871,7.429,46.589,0,32.793,0S7.535,7.323,0,20.907l58.688,80.868Z" transform="translate(748.594 125.635)" fill="#f2994a"/><path d="M0,0,119.392,68.876V83.309L0,14.433Z" transform="translate(730.447 325.364)" fill="#fff" opacity="0.15"/><path d="M0,0,144.756,83.521V97.954L0,14.433Z" transform="translate(730.447 353.594)" fill="#fff" opacity="0.15"/><path d="M0,0,93.815,54.124V68.557L0,14.433Z" transform="translate(730.447 381.823)" fill="#fff" opacity="0.15"/><path d="M0,0,195.909,113.024V498.05L0,385.025Z" transform="translate(449.212 57.82)" fill="#fff" opacity="0.07"/><path d="M196.015,113.024.106,0,0,385.131l84.795,48.818L98.06,460.163l13.266-10.825,84.689,48.712Z" transform="translate(411.432 91.144)" opacity="0.3" fill="url(#b)"/><path d="M67.815,39.161c0,16.45-3.184,30.883-9.127,41.708S44.148,98.591,33.854,100.926L0,0Z" transform="translate(513.949 285.142)" fill="#fff" opacity="0.1"/><path d="M81.823,100.82c-12.947,2.865-27.911-1.7-42.769-12.841C24.3,76.729,10.506,59.431,0,38.736L47.969,0Z" transform="translate(466.087 285.248)" fill="#fff" opacity="0.3"/><path d="M135.417,140.935c0-15.494-2.759-32.262-7.959-48.924a188.166,188.166,0,0,0-22.074-46.589C96.15,31.519,85.431,20.058,74.394,12.1,63.251,4.139,52.108,0,41.814,0A34.474,34.474,0,0,0,15.388,11.886C8.278,19.739,3.5,31.095,1.274,45-.849,58.9-.318,74.819,2.865,91.481A183.559,183.559,0,0,0,19.846,140.4l47.969-38.736Z" transform="translate(446.347 183.367)" fill="#f2c94c"/><path d="M0,0,135.523,78.215V92.648L0,14.433Z" transform="translate(437.114 383.203)" fill="#fff" opacity="0.15"/><path d="M0,0,140.723,81.293V95.726L0,14.433Z" transform="translate(437.114 411.326)" fill="#fff" opacity="0.15"/><path d="M0,0,93.815,54.124V68.557L0,14.433Z" transform="translate(437.114 439.556)" fill="#fff" opacity="0.15"/></g></svg>