<svg xmlns="http://www.w3.org/2000/svg" xmlns:xlink="http://www.w3.org/1999/xlink" width="855.724" height="1199.474" viewBox="0 0 855.724 1199.474"><defs><linearGradient id="a" x1="1.562" y1="0.176" x2="-0.489" y2="0.801" gradientUnits="objectBoundingBox"><stop offset="0" stop-color="#fff"/><stop offset="1" stop-color="#fff" stop-opacity="0"/></linearGradient><linearGradient id="b" x1="-0.313" y1="0.849" x2="0.985" y2="0.087" xlink:href="#a"/><linearGradient id="c" x1="3.649" y1="0.156" x2="-2.649" y2="0.844" xlink:href="#a"/><linearGradient id="d" x1="1.618" y1="-0.215" x2="-0.079" y2="0.884" xlink:href="#a"/><linearGradient id="e" x1="1.187" y1="0.5" x2="0.056" y2="0.5" xlink:href="#a"/><linearGradient id="f" x1="-1.772" y1="0.834" x2="2.776" y2="0.166" xlink:href="#a"/><linearGradient id="g" x1="1.107" y1="0.067" x2="0.219" y2="0.7" xlink:href="#a"/><linearGradient id="h" x1="0.613" y1="0.322" x2="0.387" y2="0.678" xlink:href="#a"/><linearGradient id="j" x1="0.6" y1="0.119" x2="0.374" y2="0.976" xlink:href="#a"/></defs><g transform="translate(-0.9 -0.554)"><path d="M15.977,1.948c8.829,4.537,15.836,15.627,15.836,24.7V270.124l80.3,41.714V563c0,9.074-7.147,12.728-15.836,8.191-8.829-4.537-15.836-15.627-15.836-24.7V328.221L0,286.633V10.139C0,1.066,7.147-2.589,15.977,1.948Z" transform="translate(315.946 0.554)" opacity="0.3" fill="url(#a)"/><path d="M15.836,295.077c8.829,4.537,15.836.882,15.836-8.191V104.4l80.3,41.714V26.648c0-9.074-7.147-20.164-15.836-24.7C87.31-2.589,80.3,1.066,80.3,10.139V96.717L0,55V270.376C0,279.45,7.147,290.54,15.836,295.077Z" transform="translate(359.811 765.008)" opacity="0.3" fill="url(#b)"/><path d="M15.836,1.948c8.829,4.537,15.836,15.627,15.836,24.7V440.885c0,9.074-7.147,12.728-15.836,8.191C7.007,444.54,0,433.45,0,424.376V10.139C0,1.066,7.147-2.589,15.836,1.948Z" transform="translate(483.278 179.255)" opacity="0.3" fill="url(#c)"/><path d="M72.6,67.826c0,24.953-16.257,36.8-36.3,26.339C16.257,83.831,0,55.1,0,30.146S16.257-6.653,36.3,3.807C56.338,14.141,72.6,42.874,72.6,67.826Z" transform="translate(336.547 971.465)" fill="#f2c94c"/><path d="M96.139,1.948C87.31-2.589,80.3,1.066,80.3,10.139v123L0,91.424v151.1c0,9.074,7.147,20.164,15.836,24.7,8.829,4.537,15.836.882,15.836-8.191V140.825l80.3,41.714V26.648C111.976,17.575,104.828,6.485,96.139,1.948Z" transform="translate(579.698 386.94)" opacity="0.3" fill="url(#d)"/><path d="M71.754,66.968c0,24.7-16.117,36.295-35.877,26.087C16.117,82.721,0,54.492,0,29.791S15.977-6.5,35.877,3.7C55.778,14.039,71.754,42.268,71.754,66.968Z" transform="translate(639.68 365.398)" fill="#f2994a"/><path d="M280.29,249.583c0-9.074-7.147-20.164-15.836-24.7L139.724,160.107V66.22L15.836,1.948C7.007-2.589,0,1.066,0,10.139S7.147,30.3,15.836,34.84l92.215,47.889v93.887l156.542,81.159C273.282,262.311,280.29,258.656,280.29,249.583Z" transform="translate(549.146 811.889)" opacity="0.3" fill="url(#e)"/><path d="M15.836,333.514C7.007,328.977,0,317.887,0,308.813V10.139C0,1.066,7.147-2.589,15.836,1.948c8.829,4.537,15.836,15.627,15.836,24.7V325.322C31.673,334.4,24.525,338.051,15.836,333.514Z" transform="translate(512.569 864.566)" opacity="0.3" fill="url(#f)"/><path d="M72.6,67.826c0,24.953-16.257,36.8-36.3,26.339C16.257,83.831,0,55.1,0,30.146S16.257-6.653,36.3,3.807C56.338,14.141,72.6,42.874,72.6,67.826Z" transform="translate(776.181 1004.483)" fill="#f2994a"/><path d="M0,0,228.156,118.461V498.546L0,380.085Z" transform="translate(72.514 570.991)" opacity="0.3" fill="url(#g)"/><path d="M0,0,135.94,70.573v15L0,15Z" transform="translate(108.671 812.703)" fill="#fff" opacity="0.15"/><path d="M0,0,107.771,55.954v15L0,15Z" transform="translate(122.826 849.627)" fill="#fff" opacity="0.15"/><path d="M158.644,82.419,0,0V42.47l158.784,82.419Z" transform="translate(0.9 834.883)" fill="#f2c94c"/><path d="M102.726,20.794,67.27,46,43.445,18.525l-31.112,24.2L0,34.656,45.827,0,69.091,27.473,94.738,10.334Z" transform="translate(133.337 706.591)" fill="#fff" opacity="0.2"/><path d="M41.2,38.579c0,14.241-9.25,20.92-20.6,15S0,31.4,0,17.155s9.25-20.92,20.6-15S41.2,24.464,41.2,38.579Z" transform="translate(221.488 688.176)" fill="#f2c94c"/><path d="M41.2,38.579c0,14.241-9.25,20.92-20.6,15S0,31.4,0,17.155s9.25-20.92,20.6-15S41.2,24.338,41.2,38.579Z" transform="translate(115.258 715.649)" fill="#f2c94c"/><path d="M216.944,112.664,0,0V101.574L216.944,214.239Z" transform="translate(639.68 706.844)" opacity="0.2" fill="url(#h)"/><path d="M0,0,65.307,33.9V46.124L0,12.1V0Z" transform="translate(695.177 760.277)" fill="#fff" opacity="0.15"/><path d="M0,0,139.024,72.085v12.35L0,12.35Z" transform="translate(695.318 784.726)" fill="#fff" opacity="0.15"/><path d="M24.665,22.83c0,8.318-5.466,12.35-12.333,8.822S0,18.419,0,10.1,5.466-2.248,12.333,1.28,24.665,14.513,24.665,22.83Z" transform="translate(659.16 740.976)" fill="#f2994a"/><path d="M216.944,112.664,0,0V101.574L216.944,214.239Z" transform="translate(83.025 396.197)" opacity="0.2" fill="url(#h)"/><path d="M0,0,65.307,33.9V46.124L0,12.224Z" transform="translate(138.522 449.631)" fill="#fff" opacity="0.15"/><path d="M0,0,139.024,72.085v12.35L0,12.35Z" transform="translate(138.662 474.079)" fill="#fff" opacity="0.15"/><path d="M24.665,22.83c0,8.318-5.466,12.35-12.333,8.822S0,18.419,0,10.1,5.466-2.248,12.333,1.28C19.06,4.809,24.665,14.513,24.665,22.83Z" transform="translate(102.505 430.33)" fill="#f2994a"/><path d="M179.385,167.742c0,61.751-40.222,90.988-89.693,65.28C40.081,207.313,0,136.363,0,74.611S40.222-16.377,89.693,9.332C139.3,35.04,179.385,105.991,179.385,167.742Z" transform="translate(407.18 561.911)" opacity="0.2" fill="url(#j)"/><g transform="translate(365.417 587.116)"><path d="M20.741,29.867c2.382-.63,3.644-2.9,3.644-6.805A16.078,16.078,0,0,0,20.741,12.6,35.5,35.5,0,0,0,9.81,4.537C8.269,3.781,6.587,2.9,4.765,2.142,2.943,1.26,1.4.5,0,0V21.676l8.829,4.537C14.435,29.111,18.359,30.245,20.741,29.867Z" transform="translate(75.398 82.047)" fill="#fff" opacity="0.4"/><path d="M11.352,5.923,0,0V25.961c1.4.882,2.8,1.764,4.2,2.52,1.542.882,3.223,1.764,5.045,2.772,5.466,2.773,9.81,4.159,13.174,3.907,3.363-.126,5.045-2.9,5.045-8.065a18.334,18.334,0,0,0-4.2-11.972A36.956,36.956,0,0,0,11.352,5.923Z" transform="translate(75.258 120.862)" fill="#fff" opacity="0.4"/><path d="M89.693,233.022C40.222,207.313,0,136.362,0,74.611S40.082-16.377,89.693,9.331c49.471,25.709,89.693,96.66,89.693,158.411,0,46.544-22.764,74.616-55.222,74.612C113.557,242.353,101.911,239.354,89.693,233.022Z" transform="translate(0 0)" fill="#fff" opacity="0.4"/></g></g></svg>